<svg height="512" viewBox="0 0 512 512" width="512" xmlns="http://www.w3.org/2000/svg"><g id="Fruits_Vegetables_Tracking_Monitor" data-name="Fruits Vegetables Tracking Monitor"><g id="Flat"><path d="m251.807 508.814-248-152.614a8 8 0 0 1 .4-13.858l248-133.392a8.005 8.005 0 0 1 7.58 0l248 133.392a8 8 0 0 1 .4 13.858l-248 152.61a8 8 0 0 1 -8.38.004z" fill="#9ccc65"/><path d="m507.789 342.345-115.989-62.388c-66.721 82.953-169.06 136.043-283.8 136.043-2.388 0-4.768-.03-7.145-.076l150.952 92.89a8 8 0 0 0 8.386 0l248-152.61a8 8 0 0 0 -.404-13.859z" fill="#83bd46"/><path d="m409.7 364.257-17.856-9.6 18.256-11.24a8 8 0 1 0 -8.385-13.626l-26.165 16.1-102.663-55.221 16.993-9.14a8 8 0 0 0 -7.58-14.09l-26.3 14.146-26.3-14.145a8 8 0 0 0 -7.579 14.091l16.988 9.137-37.5 20.172-21.783-13.4a8 8 0 1 0 -8.386 13.626l13.878 8.54-48.872 26.286-20.162-12.407a8 8 0 0 0 -8.385 13.627l12.893 7.9a8 8 0 0 0 9.988 12.094l5.186-2.789c50 30.677 82.942 51.038 104.761 64.545l-19 11.695a8 8 0 1 0 8.385 13.627l25.837-15.9c29.858 18.486 27.735 17.087 30.14 17.087 8.025 0 11.065-10.59 4.2-14.815l-19.016-11.7 45.794-28.18 22.378 13.77a8 8 0 0 0 8.386-13.627l-15.5-9.537 43.767-26.933 26.03 14a8 8 0 0 0 7.579-14.091zm-153.7 55.203-103.8-63.877 48.869-26.283 100.725 61.98zm61.059-37.574-99.7-61.351 38.641-20.782 103.8 55.832z" fill="#71ad3d"/><path d="m385.341 316.437c-3.974-5.969-97.341-146.853-97.341-205.466 0-61.188 46.654-110.971 104-110.971s104 49.78 104 110.968c0 58.613-93.367 199.5-97.341 205.466a8 8 0 0 1 -13.318.003z" fill="#b2ebf2"/><circle cx="392" cy="104.003" fill="#80deea" r="80"/><path d="m113.341 380.434c-3.974-5.969-97.341-146.852-97.341-205.466 0-61.188 46.654-110.968 104-110.968s104 49.78 104 110.968c0 58.614-93.367 199.5-97.341 205.466a8 8 0 0 1 -13.318 0z" fill="#b2ebf2"/><circle cx="120" cy="168" fill="#80deea" r="80"/><path d="m120 232a8 8 0 0 1 -8-8v-40a8 8 0 0 1 16 0v40a8 8 0 0 1 -8 8z" fill="#558b2f"/><path d="m388.422 88.758a8 8 0 0 1 -3.577-10.733c5.323-10.647-6.795-30.025-16.845-30.025a8 8 0 0 1 -8-8c0-12.929 22.816-10.432 35.461 10.027 12.546 20.303 5.439 44.967-7.039 38.731z" fill="#71ad3d"/><path d="m408 168a25.319 25.319 0 0 1 -16-6.114 25.319 25.319 0 0 1 -16 6.114c-29.56 0-40-55.846-40-70.118 0-34 36.669-41.553 56-26.731 19.3-14.8 56-7.31 56 26.731 0 14.275-10.44 70.118-40 70.118z" fill="#ea7432"/><path d="m436.005 71.073a79.994 79.994 0 0 1 -79.672 72.927 80.752 80.752 0 0 1 -9.173-.539c6.346 13.511 15.704 24.539 28.84 24.539a25.319 25.319 0 0 0 16-6.114 25.319 25.319 0 0 0 16 6.114c29.56 0 40-55.846 40-70.118 0-12.391-4.876-21.249-11.995-26.809z" fill="#e2601e"/><circle cx="364" cy="92.003" fill="#fa9664" r="12"/><circle cx="392" cy="104.003" fill="#fa9664" r="8"/><path d="m119.7 164.438c-3.631-11.7-9.252-25.308-17.3-33.357-46.731-46.728-101.473 44.311 13.328 64.19a45.515 45.515 0 0 0 7.935 0c4.007-.693 39.588-7.226 54.943-22.581 43.423-43.422-32.327-93.951-58.906-8.252z" fill="#83bd46"/><path d="m174.531 119.794a80.547 80.547 0 0 1 -99.194 62.659c13.283 7.049 38.8 14.474 48.326 12.818 80.771-13.986 78.255-64.613 50.868-75.477z" fill="#71ad3d"/><circle cx="68" cy="140" fill="#9ccc65" r="12"/><circle cx="96" cy="152" fill="#9ccc65" r="8"/><g fill="#80deea"><path d="m71.324 311.958c20.956 36.711 40.257 65.832 42.017 68.476a8 8 0 0 0 13.318 0c2.969-4.458 55.812-84.2 82.365-148.691a163.914 163.914 0 0 1 -137.7 80.215z"/><path d="m343.3 247.961c20.955 36.711 40.257 65.832 42.017 68.476a8 8 0 0 0 13.318 0c2.969-4.459 55.812-84.2 82.365-148.691a163.914 163.914 0 0 1 -137.7 80.215z"/></g></g></g></svg>