<?xml version="1.0"?>
<svg xmlns="http://www.w3.org/2000/svg" xmlns:xlink="http://www.w3.org/1999/xlink" xmlns:svgjs="http://svgjs.com/svgjs" version="1.1" width="512" height="512" x="0" y="0" viewBox="0 0 60 60" style="enable-background:new 0 0 512 512" xml:space="preserve" class=""><g><g xmlns="http://www.w3.org/2000/svg" id="Page-1" fill="none" fill-rule="evenodd"><g id="026---Searching-Map" fill="rgb(0,0,0)" fill-rule="nonzero"><path id="Shape" d="m57.76 4.57-17-4.47c-.4919334-.12701665-1.0080666-.12701665-1.5 0l-19 4.75c-.1671428.0440786-.3428572.0440786-.51 0l-15.98-4.22c-.90037472-.23910625-1.86073748-.04636805-2.59913232.52162798-.73839485.56799603-1.17102296 1.44678927-1.17086768 2.37837202v33c-.00358182 1.3670737.91751582 2.5636782 2.24 2.91l17 4.47c.2490171.0591959.5040444.0893965.76.09.2461038.0000562.4912793-.0301709.73-.09l3.27-.82v3.25c-.00237 1.3269886.5228605 2.6004927 1.46 3.54l3.95 3.95c.3755878.3733503.5877672.8804232.59 1.41v1.76c0 1.6568542 1.3431458 3 3 3h16c1.6568542 0 3-1.3431458 3-3v-2c0-.4327404.1403557-.8538077.4-1.2l1.8-2.4c.5192885-.6923847.8-1.5345191.8-2.4v-6l1.23.33c.8936203.237398 1.846785.0494682 2.5834186-.5093573s1.1744285-1.4261064 1.1865814-2.3506427v-33c-.0009713-1.36335364-.9211198-2.55461734-2.24-2.9zm-20.76 24.97v-9.54c-.000178-.4935094-.0952366-.9823822-.28-1.44l2.28-.38v10.82c-.7025196.0012467-1.3923207.187493-2 .54zm-7.43-11.54-8.57 1.77v-4.95l5.39-1.08c.9502315-.188737 1.6285624-1.0313839 1.61-2v-6.74l4-1v6.21c0 1.1045695.8954305 2 2 2 .1295796.014786.2604204.014786.39 0l4.61-.99v4.93l-3.66.62c-.9135242-.6511632-2.0585091-.8887752-3.1557033-.6548846-1.0971942.2338907-2.0457404.917784-2.6142967 1.8848846zm-22.16-.68-5.41-1.13v-5l17 3.58v5l-3.59-.77c-.590006-.1218332-1.203497.0287844-1.67.41-.4782788.3878254-.7512496.9743438-.74 1.59v19.19l-4-1v-19.91c.00117285-.9474786-.6626431-1.7657675-1.59-1.96zm7.59 3.68 4 .84v20l-4-1zm24-11.82-5 1v-6.71l5-1.25zm2 2.05 17 3.58v5l-17-3.62zm17-3.75.0000097 5.29-17.0000097-3.58v-6.95l16.26 4.27c.4381815.11798016.7419916.51621773.74.97zm-32-2v6.31l-5 1v-6.07zm-23.61-2.74c.24767074-.18912826.56935297-.2519857.87-.17l15.74 4.13v6.07l-17-3.58v-5.66c.00074392-.30949665.14475302-.60120739.39-.79zm-.39 33.78-.00000973-18.29 5.00000973 1.05v19.33l-4.26-1.12c-.43818147-.1179802-.74199157-.5162177-.74-.97zm22 1.48v3l-3 .75v-20l8-1.68v13.93h-1c-2.209139 0-4 1.790861-4 4zm29 11c0 .4327404-.1403557.8538077-.4 1.2l-1.8 2.4c-.5192885.6923847-.8 1.5345191-.8 2.4v2c0 .5522847-.4477153 1-1 1h-16c-.5522847 0-1-.4477153-1-1v-1.76c.0008345-1.0611852-.4200457-2.0792116-1.17-2.83l-3.95-3.95c-.5627699-.5620694-.8792998-1.3246186-.88-2.12v-8.34c0-1.1045695.8954305-2 2-2h1v4c0 .5522847.4477153 1 1 1s1-.4477153 1-1v-20c0-1.1045695.8954305-2 2-2s2 .8954305 2 2v16c0 .5522847.4477153 1 1 1s1-.4477153 1-1v-3c0-1.1045695.8954305-2 2-2s2 .8954305 2 2v3c0 .5522847.4477153 1 1 1s1-.4477153 1-1v-2c0-1.1045695.8954305-2 2-2s2 .8954305 2 2v2c0 .5522847.4477153 1 1 1s1-.4477153 1-1v-1c0-1.1045695.8954305-2 2-2s2 .8954305 2 2zm4.61-7.74c-.2476707.1891283-.569353.2519857-.87.17l-1.74-.43v-6c0-2.209139-1.790861-4-4-4-.9414598-.0037823-1.8531543.329678-2.57.94-.723397-1.2040562-2.0253455-1.9404352-3.43-1.94-.9414598-.0037823-1.8531543.329678-2.57.94-.3503429-.5802941-.8424094-1.0620375-1.43-1.4v-11.31l17 3.58v18.66c-.0007439.3094966-.144753.6012074-.39.79z" fill="#5f9bce" data-original="#000000" style="" class=""/></g></g></g></svg>
